<svg xmlns="http://www.w3.org/2000/svg" width="431.99" height="87" viewBox="0 0 431.99 87"><title>rha-logo</title><g data-name="Ebene 1"><path d="M128.92 66.79c-1 0-1.47-.33-1.47-1.46v-7.67c0-1 .39-1.49 1.46-1.49h4.41c.21 0 .33.06.33.32v.65c0 .23-.11.3-.33.3h-4c-.32 0-.5.17-.5.56v2.65h4c.21 0 .35.06.35.33v.63c0 .23-.12.3-.35.3h-4v3c0 .42.17.6.59.6h4.11c.21 0 .35.06.35.33v.63c0 .23-.12.3-.35.3h-4.62zm-4.3-10.25c.09-.29.18-.42.42-.42a5.36 5.36 0 0 1 .89.07.22.22 0 0 1 .18.23 1.37 1.37 0 0 1-.12.44l-3.27 9.23a.9.9 0 0 1-1 .75h-.36c-.65 0-.83-.35-1-.8l-3.19-9.17a1.45 1.45 0 0 1-.1-.44.24.24 0 0 1 .16-.24 4.34 4.34 0 0 1 .95-.07c.24 0 .3.12.41.42 2.35 6.88 2.62 7.71 3 8.82.36-1.1.62-1.87 3-8.82zm-9.55 10.28h-.75c-.21 0-.32-.12-.32-.36v-10c0-.21.09-.36.33-.36h.77c.24 0 .3.13.3.36v10a.32.32 0 0 1-.27.36h-.06zm-6.17 0h-.75c-.23 0-.33-.13-.33-.36v-9h-2.92c-.23 0-.35-.07-.35-.3v-.65c0-.26.14-.32.35-.32h7.24c.21 0 .35.06.35.32v.65c0 .23-.12.3-.35.3h-2.92v9c0 .24-.12.36-.33.36zm-9.45-9.63c-1.9 0-3 .72-3 4.23 0 3.7 1 4.35 2.91 4.35s3-.57 3-4.33c-.01-3.62-.81-4.25-2.92-4.25zM99.37 67C96.45 67 95 65.84 95 61.42S96.94 56 99.49 56c2.9 0 4.32.8 4.32 5.43 0 4.38-1.42 5.57-4.44 5.57zm-15.16-.17h-.75c-.21 0-.3-.13-.3-.36v-9.24c0-.65.2-1.13 1-1.13h.35c.74 0 .84.3 1.19 1.11 1.58 3.67 1.94 4.54 2.32 5.54.41-1.07.72-1.82 2.3-5.52.29-.68.47-1.13 1.21-1.13h.38c.83 0 .92.39.92 1.13v9.2c0 .27-.11.39-.33.39h-.74c-.23 0-.32-.13-.32-.38V57.5c-.38 1-.81 2.15-2.68 6.52-.19.45-.33.65-.69.65h-.17c-.35 0-.53-.18-.71-.62-1.8-4.32-2.23-5.31-2.69-6.55v9c0 .2-.07.36-.33.36zm-7.8-9.63c-1.9 0-2.95.72-2.95 4.23 0 3.7 1 4.35 2.91 4.35s3-.57 3-4.33c-.05-3.63-.85-4.26-2.96-4.26zm-.07 9.8C73.42 67 72 65.84 72 61.42S73.92 56 76.46 56c2.91 0 4.32.8 4.32 5.43 0 4.38-1.41 5.57-4.44 5.57zm-8.67-.17h-.75c-.23 0-.33-.13-.33-.36v-9h-2.9c-.23 0-.35-.07-.35-.3v-.65c0-.26.13-.32.35-.32h7.24c.21 0 .35.06.35.32v.65c0 .23-.12.3-.35.3H68v9c0 .23-.12.35-.33.35zm-6-4.27a6 6 0 0 1-.44 3c-.54 1-1.7 1.46-3.51 1.46-1.58 0-2.89-.33-3.46-1.56a7.67 7.67 0 0 1-.26-2.88v-6.1a.31.31 0 0 1 .27-.35h.84c.21 0 .29.13.29.35V63a3.8 3.8 0 0 0 .33 1.94 2.35 2.35 0 0 0 2.14.83c.77 0 1.78-.12 2.17-.78a3.71 3.71 0 0 0 .3-1.99v-6.52a.31.31 0 0 1 .27-.35h.79c.21 0 .29.13.29.35v6.06zm-11.88-.16c-1-3.06-1.33-4-1.64-5-.32 1-.65 2-1.69 5zm-4.65 4c-.09.29-.17.42-.41.42a6.08 6.08 0 0 1-.93-.06.21.21 0 0 1-.16-.23 1.64 1.64 0 0 1 .1-.44L47 57c.22-.63.42-.92 1.11-.92h.3c.63 0 .77.27 1 .9l3.15 9.09a1.23 1.23 0 0 1 .11.44.24.24 0 0 1-.15.24 4.38 4.38 0 0 1-.93.06c-.24 0-.33-.13-.42-.42l-1-2.78h-4l-1 2.78z" fill="#3e3d40"/><path d="M43.1.23L4 17.64C.79 19.06 0 21.2 0 22.7v39a.59.59 0 0 0 .83.54l20.29-9a5 5 0 0 0 2.82-4.73V26.83l16.95-7.55c1.76-.83 3-3.14 3-6.19V.78a.54.54 0 0 0-.79-.55z" fill="#007ec1"/><path d="M.83 62.23l20.29-9a5 5 0 0 0 2.82-4.73V26.83l-20 9c-3.31 1.47-4 3.66-4 5.28v20.57a.59.59 0 0 0 .89.55z" fill="#00406e"/><path d="M0 41.11c0-1.62.68-3.81 4-5.28l20-9v3.54L4 37.79c-3 1.11-4 3.27-4 4.89z" fill="#001836"/><path d="M46.77 51.31h-2.38c-.46 0-.75-.26-.75-.86v-16.2c0-2.19.8-3.28 3.19-3.28H49a17.55 17.55 0 0 1 5.84.69c2.19.89 2.93 2.91 2.93 5.38s-.83 4.54-3.25 5.55l3.91 7.08a2.43 2.43 0 0 1 .4 1 .5.5 0 0 1-.43.52c-.26.06-2.27.14-2.88.14a1 1 0 0 1-1-.66l-3.77-7.39h-3.14v7.1a.78.78 0 0 1-.84.93zm2.53-11.13a9.45 9.45 0 0 0 2.91-.35 2.56 2.56 0 0 0 1.49-2.59c0-1.53-.46-2.36-1.44-2.7a8.65 8.65 0 0 0-2.59-.26h-1.12c-.69 0-.95.32-.95 1v4.95h1.7zm15.77 11.13h-2.42c-.46 0-.75-.26-.75-.86V31.81c0-.52.23-.86.78-.86h2.47c.55 0 .72.32.72.83V39h7.88v-7.19c0-.52.23-.86.81-.86H77c.55 0 .72.32.72.83v18.67a.77.77 0 0 1-.81.86h-2.38c-.46 0-.78-.26-.78-.86v-7.94h-7.88v7.94a.77.77 0 0 1-.8.86zm20.45 0c-2 0-3.08-.81-3.08-3.08V34.14c0-2.16 1-3.16 3.08-3.16h8.63c.55 0 .81.17.81.78v2c0 .49-.26.66-.81.66h-6.82c-.6 0-.92.32-.92 1.06V39h7c.52 0 .8.17.8.77v2c0 .49-.29.69-.8.69h-7v4.2c0 .78.29 1.12 1.09 1.12h7.14c.52 0 .8.14.8.78v2c0 .49-.26.69-.8.69h-9.12zm16.87 0H100c-.46 0-.75-.26-.75-.86V31.81c0-.52.23-.86.78-.86h2.47c.55 0 .72.32.72.83v18.67a.77.77 0 0 1-.81.86zm8.81 0h-2.3c-.46 0-.75-.26-.75-.86V33.56c0-1.81.72-2.71 2.65-2.71h1.09c1.64 0 2 .72 2.59 1.93 4.63 9.49 5.47 11.42 6.36 13.58-.09-2.62-.09-5.12-.09-14.35 0-.63.29-1.06.86-1.06h2.16c.58 0 .77.4.77 1v17.29c0 1.9-1.06 2.24-2.24 2.24h-.89c-1.67 0-2.16-.57-3-2.21-5.15-10.53-5.61-11.62-6.5-13.75 0 2 .06 3.94.06 14.93a.77.77 0 0 1-.8.86zm21.43 0h-2.44c-.46 0-.69-.31-.69-.86V33.76c0-1.5.37-2.91 2.82-2.91h.86c2 0 2.16.52 3.13 3 2 5.09 2.56 6.62 3.13 8.37.63-1.81 1.09-3.22 3.08-8.43.8-2.13 1.09-2.93 3.28-2.93h1c2.33 0 2.47 1.15 2.47 2.91v16.6c0 .69-.29.95-.81.95H146c-.46 0-.75-.26-.75-.92 0-10.35 0-12.65.11-15.5-.72 2.36-1.29 4.05-4 11.1-.46 1.21-.77 1.69-1.78 1.69h-.46c-.95 0-1.38-.46-1.78-1.58-2.56-6.9-3.22-8.69-4.08-11.22.09 2.85.09 5.32.09 15.59.06.46-.14.83-.72.83zm24.42 0c-2 0-3.08-.81-3.08-3.08V34.14C154 32 155 31 157.05 31h8.63c.55 0 .8.17.8.78v2c0 .49-.26.66-.8.66h-6.82c-.6 0-.92.32-.92 1.06V39h7c.52 0 .81.17.81.77v2c0 .49-.29.69-.81.69h-7v4.2c0 .78.29 1.12 1.09 1.12h7.13c.52 0 .81.14.81.78v2c0 .49-.26.69-.81.69h-9.12zm20.19 0h-2.44c-.46 0-.78-.29-.78-.86v-16h-3.72c-.54 0-.81-.17-.81-.66v-2c0-.6.26-.78.81-.78h12.41c.55 0 .81.2.61.78l-.71 2a.84.84 0 0 1-1 .66h-3.6v16a.77.77 0 0 1-.76.86zm8.82-.92c-.23.69-.4 1-1 1a27.93 27.93 0 0 1-2.85-.14.54.54 0 0 1-.4-.57 3 3 0 0 1 .2-.92l5.64-16.4c.57-1.67 1-2.47 3.08-2.47h.92c1.93 0 2.22.75 2.76 2.39L200 49.67a2.81 2.81 0 0 1 .2.95.65.65 0 0 1-.38.6 16 16 0 0 1-2.85.14c-.57 0-.78-.29-1-1L194.46 46h-7l-1.41 4.35zm7.51-7.71C192 37.62 191.5 36 191 34.31c-.46 1.67-1 3.34-2.59 8.37zm12.08 8.6c-2 0-3-.87-3-2.93V31.81c0-.52.23-.86.77-.86h2.47c.55 0 .72.32.72.83v15c0 .69.29 1.06 1.06 1.06h5.77c.52 0 .8.14.8.78v2c0 .49-.29.69-.8.69h-7.78zm13.76 0c-2 0-3-.87-3-2.93V31.81c0-.52.23-.86.78-.86h2.47c.55 0 .72.32.72.83v15c0 .69.29 1.06 1.06 1.06h5.77c.52 0 .81.14.81.78v2c0 .49-.29.69-.81.69h-7.78z" fill="#3e3d40"/><path fill="none" d="M0 0h431.99v87H0z"/></g></svg>