<?xml version="1.0" standalone="no"?><!-- Generator: Gravit.io --><svg xmlns="http://www.w3.org/2000/svg" xmlns:xlink="http://www.w3.org/1999/xlink" style="isolation:isolate" viewBox="0 0 560 315" width="560" height="315"><defs><clipPath id="_clipPath_4c9s7dYJchYb1cd8rEqHCtQg4PnnPu6b"><rect width="560" height="315"/></clipPath></defs><g clip-path="url(#_clipPath_4c9s7dYJchYb1cd8rEqHCtQg4PnnPu6b)"><g><g opacity="0.46"><path d=" M 294.27 64.371 L 276.644 67.211 L 240.268 73.066 L 160.13 85.974 L 159.846 86.016 L 133.604 272.26 L 133.498 273 L 432.207 132.417 L 433 132.044 L 294.27 64.371 Z  M 414.999 124.167 L 405.798 127.922 L 392.23 120.816 L 401.359 117.512 L 414.999 124.167 Z  M 269.067 72.103 L 269.369 72.055 L 272.719 74.288 L 270.435 74.685 L 266.37 75.389 L 266.37 75.389 L 263.26 73.072 L 268.029 72.29 L 269.067 72.103 Z  M 266.214 76.267 L 269.168 78.47 L 270.658 79.583 L 269.168 79.902 L 268.051 80.143 L 265.097 80.775 L 260.821 77.206 L 265.879 76.328 L 265.879 76.328 L 266.214 76.267 Z  M 270.871 75.455 L 270.871 75.455 L 273.746 74.95 L 278.263 77.958 L 271.702 79.366 L 270.256 78.289 L 267.303 76.087 L 270.871 75.455 Z  M 283.64 73.229 L 289.357 72.236 L 293.617 74.643 L 287.475 75.961 L 285.186 74.552 L 283.154 73.301 L 283.64 73.229 Z  M 289.044 77.892 L 289.044 77.892 L 291.674 79.511 L 291.071 79.643 L 284.444 81.063 L 280.329 78.337 L 287.33 76.839 L 289.044 77.892 Z  M 270.122 84.999 L 276.158 83.699 L 277.051 84.373 L 277.051 84.373 L 277.258 84.524 L 278.548 85.486 L 272.406 86.913 L 270.681 85.444 L 270.552 85.33 L 270.122 84.999 Z  M 277.208 83.477 L 284.293 81.954 L 285.968 83.061 L 286.281 83.266 L 286.761 83.585 L 279.614 85.252 L 278.43 84.367 L 278.43 84.367 L 278.218 84.205 L 277.208 83.477 Z  M 254.489 129.625 L 240.598 133.573 L 236.572 125.9 L 249.698 122.476 L 254.489 129.625 Z  M 249.241 121.736 L 236.176 125.154 L 232.826 118.758 L 244.908 115.677 L 245.165 115.61 L 248.364 120.424 L 248.364 120.467 L 249.241 121.736 Z  M 291.412 95.06 L 292.696 96.023 L 289.513 96.763 L 285.756 97.63 L 285.354 97.726 L 284.332 96.872 L 283.148 95.879 L 278.123 91.666 L 284.684 90.054 L 289.385 93.562 L 289.385 93.562 L 291.412 95.06 Z  M 268.319 94.098 L 269.179 93.887 L 277.185 91.919 L 282.166 96.077 L 283.349 97.07 L 284.41 97.955 L 274.985 100.151 L 273.651 98.948 L 272.747 98.129 L 268.838 94.591 L 268.319 94.098 Z  M 285.197 98.617 L 286.063 99.339 L 286.364 99.592 L 290.641 103.16 L 280.982 105.627 L 275.706 100.813 L 285.197 98.617 Z  M 274.031 100.374 L 270.977 101.084 L 270.921 101.084 L 254.913 104.815 L 254.249 104.971 L 249.347 98.743 L 254.735 97.419 L 267.331 94.326 L 274.031 100.374 Z  M 254.936 105.669 L 270.323 102.059 L 270.323 102.059 L 271.647 101.752 L 274.768 101.024 L 280.066 105.838 L 276.526 106.74 L 275.226 107.071 L 259.134 111.175 L 254.936 105.844 L 254.807 105.681 L 254.936 105.669 Z  M 263.501 118.011 L 255.293 120.154 L 250.045 121.526 L 245.963 115.406 L 255.114 113.071 L 258.855 112.12 L 263.501 118.011 Z  M 255.31 121.02 L 264.059 118.739 L 269.318 125.425 L 255.516 129.348 L 255.282 129.415 L 250.525 122.272 L 255.31 121.02 Z  M 259.698 111.922 L 275.89 107.794 L 277.191 107.463 L 280.792 106.542 L 286.755 111.958 L 284.159 112.638 L 279.134 113.943 L 279.134 113.943 L 264.316 117.819 L 259.698 111.922 Z  M 281.736 106.301 L 291.423 103.834 L 293.461 105.537 L 297.715 109.093 L 293.461 110.207 L 287.693 111.711 L 281.736 106.301 Z  M 293.461 104.496 L 292.383 103.593 L 293.461 103.316 L 300.161 101.613 L 306.961 106.686 L 298.687 108.847 L 293.461 104.496 Z  M 293.461 102.462 L 291.602 102.937 L 286.967 99.068 L 286.158 98.406 L 288.212 97.925 L 293.438 96.721 L 293.533 96.721 L 299.273 101.006 L 293.461 102.462 Z  M 277.364 91.029 L 273.216 87.574 L 279.424 86.136 L 283.835 89.428 L 277.364 91.029 Z  M 276.392 91.269 L 269.173 93.044 L 268.057 93.315 L 267.576 93.436 L 263.601 89.825 L 268.068 88.79 L 269.184 88.531 L 272.266 87.815 L 276.392 91.269 Z  M 266.633 93.676 L 254.69 96.601 L 248.76 98.057 L 245.556 93.995 L 254.556 91.907 L 262.607 90.036 L 266.633 93.676 Z  M 247.94 98.268 L 241.15 99.935 L 236.427 101.096 L 233.568 96.805 L 240.994 95.084 L 244.718 94.194 L 247.94 98.268 Z  M 241.178 100.783 L 248.498 98.978 L 253.372 105.182 L 241.385 107.98 L 241.05 108.058 L 236.89 101.812 L 241.178 100.783 Z  M 253.931 105.898 L 254.947 107.186 L 258.269 111.398 L 255.075 112.247 L 245.455 114.654 L 241.547 108.768 L 253.931 105.898 Z  M 264.874 118.505 L 278.598 114.894 L 278.598 114.894 L 284.544 113.336 L 287.47 112.571 L 293.433 117.987 L 293.88 118.39 L 293.433 118.517 L 270.117 125.136 L 264.874 118.505 Z  M 293.438 116.928 L 288.413 112.355 L 293.438 111.043 L 298.463 109.725 L 305.074 115.255 L 294.795 118.18 L 293.438 116.928 Z  M 299.429 109.472 L 307.771 107.294 L 314.739 112.493 L 306.012 114.972 L 299.429 109.472 Z  M 308.776 107.035 L 318.357 104.532 L 325.682 109.382 L 315.716 112.247 L 308.776 107.035 Z  M 307.927 106.397 L 301.138 101.331 L 310.071 99.05 L 317.419 103.918 L 307.927 106.397 Z  M 300.272 100.693 L 294.555 96.426 L 303.114 94.435 L 309.161 98.406 L 300.272 100.693 Z  M 293.69 95.782 L 293.427 95.584 L 285.7 89.819 L 293.327 87.942 L 293.427 88.008 L 302.165 93.803 L 293.69 95.782 Z  M 284.84 89.163 L 280.446 85.884 L 287.704 84.199 L 292.4 87.31 L 284.84 89.163 Z  M 269.564 85.553 L 269.564 85.553 L 271.423 87.099 L 269.134 87.629 L 268.017 87.887 L 262.814 89.091 L 260.525 87.015 L 263.316 86.413 L 263.316 86.413 L 264.344 86.196 L 264.388 86.196 L 267.99 85.42 L 269.106 85.185 L 269.106 85.185 L 269.408 85.444 L 269.408 85.444 L 269.564 85.553 Z  M 254.489 88.321 L 259.575 87.225 L 261.881 89.32 L 254.556 91.023 L 244.997 93.279 L 243.06 90.818 L 254.489 88.321 Z  M 244.154 93.436 L 240.944 94.182 L 233.054 95.987 L 231.262 93.291 L 240.849 91.227 L 242.206 90.938 L 244.154 93.436 Z  M 232.234 96.204 L 222.184 98.532 L 220.637 95.596 L 230.419 93.49 L 232.234 96.204 Z  M 232.725 96.938 L 235.589 101.24 L 224.981 103.846 L 222.591 99.291 L 232.725 96.938 Z  M 236.075 101.969 L 240.229 108.203 L 228.683 110.899 L 225.377 104.598 L 236.075 101.969 Z  M 240.72 108.943 L 241.452 110.02 L 241.452 110.02 L 244.64 114.834 L 244.344 114.906 L 232.39 117.957 L 229.079 111.645 L 240.72 108.943 Z  M 235.372 125.311 L 221.061 129.096 L 218.443 122.422 L 232.01 118.962 L 235.372 125.311 Z  M 235.762 126.063 L 239.799 133.747 L 224.601 138.122 L 221.369 129.878 L 235.762 126.063 Z  M 240.19 134.487 L 244.997 143.658 L 228.75 148.641 L 224.897 138.88 L 240.19 134.487 Z  M 240.961 134.271 L 254.919 130.299 L 260.631 138.862 L 245.762 143.424 L 240.961 134.271 Z  M 255.74 130.059 L 269.849 126.087 L 276.147 134.084 L 261.401 138.603 L 255.74 130.059 Z  M 270.692 125.846 L 270.692 125.846 L 293.455 119.371 L 294.622 119.04 L 302.322 126.087 L 276.962 133.862 L 270.692 125.846 Z  M 295.515 118.764 L 305.856 115.857 L 313.84 122.525 L 303.232 125.78 L 295.515 118.764 Z  M 306.783 115.562 L 315.571 113.065 L 324.024 119.377 L 314.75 122.218 L 306.783 115.562 Z  M 316.548 112.848 L 326.598 109.996 L 335.531 115.911 L 324.996 119.143 L 316.548 112.848 Z  M 327.631 109.689 L 336.62 107.138 L 345.771 112.764 L 336.542 115.592 L 327.631 109.689 Z  M 326.726 109.087 L 319.429 104.273 L 328.189 101.962 L 335.654 106.554 L 326.726 109.087 Z  M 318.508 103.635 L 311.166 98.773 L 319.541 96.637 L 327.218 101.355 L 318.508 103.635 Z  M 310.239 98.153 L 304.214 94.194 L 312.411 92.28 L 318.552 96.053 L 310.239 98.153 Z  M 303.282 93.544 L 294.427 87.677 L 301.948 85.829 L 311.439 91.654 L 303.282 93.544 Z  M 293.489 87.051 L 293.455 87.051 L 288.793 83.964 L 293.438 82.887 L 296.13 82.285 L 300.948 85.252 L 293.489 87.051 Z  M 293.455 82.026 L 290.954 82.628 L 290.898 82.628 L 287.844 83.362 L 287.492 83.127 L 287.168 82.911 L 285.41 81.743 L 291.853 80.359 L 292.696 80.179 L 295.125 81.671 L 293.455 82.026 Z  M 283.349 81.31 L 276.348 82.815 L 272.59 80.004 L 279.234 78.584 L 283.349 81.31 Z  M 275.298 83.037 L 269.341 84.319 L 269.168 84.175 L 268.051 83.242 L 265.896 81.437 L 268.051 80.973 L 269.168 80.732 L 271.535 80.227 L 275.298 83.037 Z  M 268.04 84.295 L 268.33 84.536 L 268.04 84.596 L 259.788 86.371 L 256.56 83.44 L 264.88 81.635 L 268.04 84.295 Z  M 258.827 86.576 L 254.361 87.544 L 254.361 87.544 L 242.541 90.084 L 240.782 87.851 L 240.05 86.973 L 240.709 86.834 L 251.318 84.56 L 251.318 84.56 L 255.6 83.639 L 258.827 86.576 Z  M 240.787 89.187 L 241.642 90.27 L 240.832 90.445 L 230.782 92.611 L 228.66 89.422 L 239.207 87.165 L 240.787 89.187 Z  M 229.945 92.798 L 220.257 94.88 L 218.538 91.606 L 227.823 89.614 L 229.945 92.798 Z  M 219.459 95.054 L 208.627 97.383 L 207.31 94.013 L 217.734 91.787 L 219.459 95.054 Z  M 219.861 95.813 L 221.408 98.761 L 210.191 101.367 L 208.934 98.159 L 219.861 95.813 Z  M 221.804 99.519 L 224.205 104.087 L 212.396 106.987 L 210.498 102.143 L 221.804 99.519 Z  M 224.596 104.839 L 227.895 111.127 L 215.177 114.094 L 212.698 107.763 L 224.596 104.839 Z  M 228.292 111.885 L 231.597 118.204 L 218.125 121.64 L 215.467 114.864 L 228.292 111.885 Z  M 220.308 129.294 L 205.914 133.055 L 204.071 126.087 L 217.684 122.615 L 220.308 129.294 Z  M 220.609 130.071 L 223.848 138.327 L 208.437 142.707 L 206.109 133.856 L 220.609 130.071 Z  M 224.149 139.097 L 227.985 148.869 L 211.391 153.954 L 208.65 143.502 L 224.149 139.097 Z  M 228.286 149.64 L 232.753 161.073 L 214.847 167.006 L 211.631 154.773 L 228.286 149.64 Z  M 229.034 149.411 L 245.371 144.398 L 250.994 155.104 L 233.518 160.844 L 229.034 149.411 Z  M 246.114 144.17 L 261.077 139.578 L 267.744 149.592 L 251.731 154.857 L 246.114 144.17 Z  M 261.865 139.356 L 276.677 134.818 L 284.098 144.236 L 268.52 149.357 L 261.865 139.356 Z  M 277.498 134.542 L 303.02 126.719 L 312.143 134.999 L 284.918 143.959 L 277.498 134.542 Z  M 303.913 126.442 L 314.577 123.174 L 324.069 131.088 L 313.042 134.698 L 303.913 126.442 Z  M 315.493 122.892 L 324.839 120.069 L 334.889 127.567 L 324.962 130.829 L 315.493 122.892 Z  M 325.794 119.738 L 336.402 116.489 L 347.011 123.535 L 335.799 127.218 L 325.794 119.738 Z  M 337.402 116.176 L 346.681 113.336 L 357.625 120.069 L 348.027 123.223 L 337.402 116.176 Z  M 347.731 113.023 L 356.419 110.357 L 367.68 116.76 L 358.646 119.732 L 347.731 113.023 Z  M 346.799 112.421 L 337.681 106.831 L 346.056 104.454 L 355.453 109.791 L 346.799 112.421 Z  M 336.709 106.229 L 329.272 101.662 L 337.402 99.537 L 345.023 103.87 L 336.709 106.229 Z  M 328.301 101.06 L 320.624 96.342 L 328.329 94.38 L 336.374 98.954 L 328.301 101.06 Z  M 319.647 95.74 L 313.539 91.985 L 321.043 90.24 L 327.296 93.791 L 319.647 95.74 Z  M 312.556 91.39 L 303.064 85.559 L 309.854 83.886 L 319.993 89.651 L 312.556 91.39 Z  M 302.076 84.951 L 297.274 81.996 L 303.846 80.468 L 308.815 83.296 L 302.076 84.951 Z  M 296.269 81.382 L 293.863 79.902 L 300.379 78.5 L 302.785 79.866 L 296.269 81.382 Z  M 292.847 79.276 L 288.497 76.598 L 294.7 75.275 L 299.301 77.886 L 292.847 79.276 Z  M 286.314 76.219 L 279.368 77.712 L 274.902 74.751 L 281.931 73.548 L 286.314 76.219 Z  M 264.076 80.991 L 255.807 82.76 L 251.474 78.831 L 259.76 77.387 L 264.076 80.991 Z  M 254.846 82.971 L 250.614 83.88 L 240.687 86.004 L 239.487 86.263 L 235.779 81.557 L 240.514 80.732 L 246.393 79.71 L 250.469 78.999 L 254.846 82.971 Z  M 238.621 86.443 L 228.158 88.688 L 224.696 83.495 L 234.897 81.689 L 238.621 86.443 Z  M 227.326 88.85 L 218.136 90.818 L 215.149 85.167 L 223.842 83.651 L 227.326 88.85 Z  M 217.337 90.992 L 207.003 93.207 L 204.551 86.973 L 214.334 85.27 L 217.337 90.992 Z  M 206.226 93.399 L 196.059 95.578 L 194.273 88.778 L 203.764 87.123 L 206.226 93.399 Z  M 206.534 94.176 L 207.857 97.546 L 197.181 99.838 L 196.271 96.378 L 206.534 94.176 Z  M 208.164 98.328 L 209.426 101.547 L 198.309 104.129 L 197.394 100.645 L 208.164 98.328 Z  M 209.733 102.324 L 211.631 107.174 L 199.867 110.062 L 198.516 104.929 L 209.733 102.324 Z  M 211.938 107.95 L 214.417 114.274 L 201.749 117.223 L 200.074 110.862 L 211.938 107.95 Z  M 214.73 115.051 L 217.393 121.839 L 203.87 125.287 L 201.966 118.023 L 214.73 115.051 Z  M 205.154 133.248 L 189.387 137.364 L 188.516 130.047 L 203.318 126.273 L 205.154 133.248 Z  M 205.361 134.048 L 207.689 142.936 L 190.627 147.75 L 189.51 138.182 L 205.361 134.048 Z  M 207.901 143.712 L 210.654 154.183 L 192.067 159.882 L 190.727 148.593 L 207.901 143.712 Z  M 210.861 154.983 L 214.082 167.235 L 193.742 173.915 L 192.168 160.712 L 210.861 154.983 Z  M 214.289 168.029 L 218.197 182.881 L 195.78 190.992 L 193.843 174.745 L 214.289 168.029 Z  M 215.026 167.789 L 233.077 161.855 L 238.454 175.557 L 218.912 182.616 L 215.026 167.789 Z  M 233.831 161.591 L 251.39 155.82 L 258.023 168.457 L 239.196 175.269 L 233.831 161.591 Z  M 252.144 155.573 L 268.246 150.284 L 276.018 161.952 L 258.76 168.21 L 252.144 155.573 Z  M 269.006 150.049 L 284.639 144.91 L 293.182 155.742 L 276.75 161.687 L 269.006 150.049 Z  M 285.454 144.633 L 312.852 135.607 L 323.092 144.904 L 293.98 155.435 L 285.454 144.633 Z  M 313.728 135.342 L 324.8 131.731 L 335.336 140.529 L 323.952 144.645 L 313.728 135.342 Z  M 325.699 131.406 L 335.693 128.127 L 346.748 136.377 L 336.207 140.186 L 325.699 131.406 Z  M 336.631 127.796 L 347.915 124.089 L 359.456 131.786 L 347.642 136.058 L 336.631 127.796 Z  M 348.915 123.77 L 358.557 120.599 L 370.327 127.82 L 360.444 131.4 L 348.915 123.77 Z  M 359.573 120.268 L 368.652 117.259 L 380.65 124.077 L 371.31 127.459 L 359.573 120.268 Z  M 369.696 116.94 L 377.948 114.226 L 390.232 120.647 L 381.683 123.734 L 369.696 116.94 Z  M 368.73 116.387 L 357.496 110.002 L 365.313 107.595 L 376.938 113.679 L 368.73 116.387 Z  M 356.497 109.472 L 347.128 104.147 L 354.587 102.017 L 364.258 107.077 L 356.497 109.472 Z  M 346.123 103.575 L 338.535 99.261 L 345.715 97.383 L 353.532 101.469 L 346.123 103.575 Z  M 337.502 98.677 L 329.468 94.11 L 336.168 92.395 L 344.604 96.811 L 337.502 98.677 Z  M 328.435 93.52 L 322.215 89.982 L 328.697 88.471 L 335.096 91.823 L 328.435 93.52 Z  M 321.177 89.38 L 311.015 83.603 L 316.743 82.201 L 327.597 87.881 L 321.177 89.38 Z  M 309.971 83.013 L 305.024 80.197 L 310.496 78.927 L 315.638 81.617 L 309.971 83.013 Z  M 303.963 79.595 L 301.585 78.241 L 306.973 77.086 L 309.373 78.337 L 303.963 79.595 Z  M 300.501 77.627 L 295.906 75.016 L 300.931 73.933 L 305.806 76.484 L 300.501 77.627 Z  M 294.823 74.402 L 290.624 71.995 L 295.649 71.122 L 299.831 73.313 L 294.823 74.402 Z  M 289.491 71.393 L 285.918 69.365 L 290.686 68.577 L 294.427 70.539 L 289.491 71.393 Z  M 288.229 71.616 L 282.813 72.531 L 282.813 72.531 L 282.076 72.657 L 278.62 70.539 L 280.206 70.28 L 284.622 69.552 L 288.229 71.616 Z  M 280.882 72.898 L 273.913 74.101 L 270.563 71.881 L 277.381 70.725 L 280.882 72.898 Z  M 265.304 75.606 L 259.989 76.532 L 257.085 74.125 L 262.172 73.289 L 265.304 75.606 Z  M 258.956 76.689 L 250.726 78.121 L 247.934 75.587 L 256.036 74.252 L 258.956 76.689 Z  M 249.721 78.295 L 245.695 78.999 L 240.514 79.902 L 235.226 80.823 L 233.032 78.037 L 240.413 76.833 L 243.054 76.394 L 246.924 75.762 L 249.721 78.295 Z  M 234.311 80.955 L 224.188 82.76 L 222.24 79.836 L 232.111 78.211 L 234.311 80.955 Z  M 223.339 82.863 L 214.741 84.361 L 213.127 81.286 L 221.385 79.926 L 223.339 82.863 Z  M 213.931 84.499 L 204.239 86.214 L 202.971 82.977 L 212.307 81.443 L 213.931 84.499 Z  M 203.463 86.305 L 194.06 87.942 L 193.173 84.566 L 202.19 83.085 L 203.463 86.305 Z  M 193.295 88.116 L 183.726 89.783 L 183.296 86.214 L 192.402 84.716 L 193.295 88.116 Z  M 193.508 88.922 L 195.294 95.734 L 184.686 98.003 L 183.82 90.583 L 193.508 88.922 Z  M 195.506 96.535 L 196.417 100.001 L 185.25 102.408 L 184.82 98.833 L 195.506 96.535 Z  M 196.623 100.801 L 197.539 104.297 L 185.769 107.029 L 185.317 103.226 L 196.623 100.801 Z  M 197.74 105.098 L 199.091 110.243 L 186.512 113.336 L 185.858 107.854 L 197.74 105.098 Z  M 199.303 111.043 L 200.978 117.398 L 187.377 120.569 L 186.612 114.16 L 199.303 111.043 Z  M 201.179 118.198 L 203.122 125.485 L 188.427 129.228 L 187.5 121.405 L 201.179 118.198 Z  M 188.617 137.562 L 171.705 141.979 L 171.827 134.295 L 187.746 130.239 L 188.617 137.562 Z  M 188.717 138.393 L 189.834 147.979 L 171.537 153.166 L 171.705 142.816 L 188.717 138.393 Z  M 189.957 148.809 L 191.302 160.11 L 171.297 166.242 L 171.498 154.051 L 189.957 148.809 Z  M 191.397 160.941 L 192.972 174.179 L 171.051 181.4 L 171.286 167.145 L 191.397 160.941 Z  M 193.072 174.998 L 195.004 191.245 L 170.739 200.037 L 171.035 182.237 L 193.072 174.998 Z  M 195.104 192.1 L 197.583 212.902 L 170.348 224.023 L 170.728 200.915 L 195.104 192.1 Z  M 195.853 191.829 L 218.381 183.681 L 223.3 202.408 L 198.326 212.602 L 195.853 191.829 Z  M 219.113 183.404 L 238.733 176.31 L 245.433 193.363 L 224.032 202.101 L 219.113 183.404 Z  M 239.487 176.033 L 258.397 169.215 L 266.555 184.758 L 246.159 193.081 L 239.487 176.033 Z  M 259.146 168.92 L 276.454 162.656 L 285.895 176.833 L 267.292 184.457 L 259.146 168.92 Z  M 277.241 162.379 L 293.734 156.416 L 304.002 169.45 L 286.66 176.526 L 277.241 162.379 Z  M 294.55 156.127 L 323.818 145.542 L 335.844 156.464 L 304.795 169.137 L 294.55 156.127 Z  M 324.672 145.235 L 336.067 141.131 L 348.351 151.361 L 336.626 156.139 L 324.672 145.235 Z  M 336.955 140.788 L 347.564 136.955 L 360.316 146.468 L 349.205 151.006 L 336.955 140.788 Z  M 348.468 136.624 L 360.344 132.327 L 373.537 141.071 L 361.181 146.113 L 348.468 136.624 Z  M 361.31 131.984 L 371.237 128.374 L 384.553 136.558 L 374.459 140.68 L 361.31 131.984 Z  M 372.214 128.037 L 381.605 124.643 L 395.056 132.291 L 385.486 136.196 L 372.214 128.037 Z  M 382.588 124.282 L 391.186 121.177 L 404.81 128.307 L 395.994 131.918 L 382.588 124.282 Z  M 400.332 116.994 L 391.242 120.28 L 378.998 113.901 L 387.931 110.971 L 400.332 116.994 Z  M 386.881 110.441 L 378.004 113.354 L 366.407 107.282 L 375.006 104.646 L 386.881 110.441 Z  M 373.917 104.129 L 365.369 106.752 L 355.726 101.704 L 364.101 99.297 L 373.917 104.129 Z  M 362.962 98.785 L 354.666 101.144 L 346.894 97.076 L 355.073 94.94 L 362.962 98.785 Z  M 353.934 94.38 L 345.805 96.505 L 337.374 92.094 L 345.163 90.108 L 353.934 94.38 Z  M 344.012 89.566 L 336.28 91.534 L 329.915 88.176 L 337.569 86.371 L 344.012 89.566 Z  M 336.391 85.847 L 328.798 87.574 L 317.921 81.882 L 324.839 80.203 L 336.391 85.847 Z  M 323.723 79.637 L 316.844 81.322 L 311.724 78.644 L 317.949 77.2 L 317.866 76.779 L 323.723 79.637 Z  M 317.296 76.502 L 310.596 78.055 L 308.229 76.815 L 313.957 75.581 L 313.812 74.799 L 317.296 76.502 Z  M 313.767 74.781 L 307.067 76.213 L 302.193 73.662 L 308.648 72.284 L 313.767 74.781 Z  M 307.442 71.694 L 301.065 73.066 L 296.922 70.912 L 303.466 69.774 L 307.442 71.694 Z  M 302.232 69.155 L 295.756 70.28 L 292.004 68.318 L 298.374 67.271 L 302.232 69.155 Z  M 294.187 65.231 L 297.118 66.657 L 290.781 67.716 L 287.989 66.248 L 294.187 65.231 Z  M 286.66 66.435 L 289.452 67.909 L 284.756 68.679 L 282.093 67.169 L 286.66 66.435 Z  M 277.487 67.909 L 277.487 67.909 L 280.837 67.373 L 283.506 68.89 L 279.413 69.564 L 277.571 69.871 L 275.036 68.306 L 277.487 67.909 Z  M 273.796 68.511 L 276.337 70.075 L 269.558 71.189 L 267.135 69.588 L 273.796 68.511 Z  M 265.98 69.774 L 268.408 71.387 L 262.395 72.374 L 260.162 70.713 L 265.98 69.774 Z  M 259.056 70.894 L 261.29 72.555 L 256.264 73.379 L 254.215 71.67 L 259.056 70.894 Z  M 253.171 71.839 L 255.226 73.554 L 247.18 74.877 L 245.182 73.132 L 253.171 71.839 Z  M 240.33 73.909 L 240.525 73.878 L 244.21 73.277 L 246.147 75.04 L 242.34 75.642 L 240.397 75.961 L 232.463 77.266 L 230.977 75.383 L 240.33 73.909 Z  M 230.039 75.539 L 231.53 77.423 L 221.737 79.036 L 220.431 77.104 L 230.039 75.539 Z  M 219.582 77.224 L 220.883 79.174 L 212.72 80.516 L 211.659 78.5 L 219.582 77.224 Z  M 210.844 78.626 L 211.905 80.648 L 202.664 82.171 L 201.844 80.077 L 210.844 78.626 Z  M 201.056 80.203 L 201.883 82.297 L 192.949 83.765 L 192.391 81.599 L 201.056 80.203 Z  M 191.62 81.725 L 192.179 83.892 L 183.19 85.372 L 182.922 83.121 L 191.62 81.725 Z  M 172.637 84.776 L 182.129 83.248 L 182.397 85.498 L 172.581 87.111 L 172.637 84.776 Z  M 172.587 87.954 L 182.536 86.371 L 182.961 89.951 L 172.548 91.757 L 172.587 87.954 Z  M 172.509 92.557 L 183.039 90.722 L 183.921 98.147 L 172.414 100.645 L 172.509 92.557 Z  M 172.414 101.493 L 184.044 99.008 L 184.468 102.582 L 172.324 105.194 L 172.414 101.493 Z  M 172.341 106.024 L 184.597 103.395 L 185.049 107.204 L 172.269 110.17 L 172.341 106.024 Z  M 172.257 111.025 L 185.149 108.016 L 185.803 113.504 L 172.162 116.856 L 172.257 111.025 Z  M 172.146 117.723 L 185.897 114.347 L 186.662 120.743 L 172.04 124.149 L 172.146 117.723 Z  M 186.757 121.568 L 187.69 129.391 L 171.889 133.422 L 172.028 124.998 L 186.757 121.568 Z  M 160.566 86.75 L 171.917 84.945 L 171.878 87.28 L 160.225 89.199 L 160.566 86.75 Z  M 160.108 90.036 L 171.833 88.098 L 171.772 91.865 L 159.522 94.001 L 160.108 90.036 Z  M 159.427 94.85 L 171.788 92.695 L 171.626 100.813 L 158.154 103.702 L 159.427 94.85 Z  M 158.059 104.556 L 171.638 101.644 L 171.582 105.332 L 157.523 108.341 L 158.059 104.556 Z  M 157.372 109.238 L 171.537 106.193 L 171.47 110.351 L 156.736 113.769 L 157.372 109.238 Z  M 156.613 114.654 L 171.453 111.212 L 171.358 117.067 L 155.725 120.906 L 156.613 114.654 Z  M 155.608 121.784 L 171.347 117.921 L 171.241 124.336 L 154.703 128.193 L 155.608 121.784 Z  M 154.58 129.096 L 171.224 125.214 L 171.085 133.669 L 153.296 138.2 L 154.58 129.096 Z  M 153.173 139.085 L 171.074 134.512 L 170.945 142.202 L 152.04 147.148 L 153.173 139.085 Z  M 151.912 148.039 L 170.934 143.075 L 170.739 153.407 L 150.315 159.214 L 151.912 148.039 Z  M 150.237 160.14 L 170.772 154.303 L 170.571 166.507 L 148.383 173.313 L 150.237 160.14 Z  M 148.254 174.209 L 170.56 167.374 L 170.325 181.653 L 146.083 189.614 L 148.254 174.209 Z  M 145.932 190.475 L 170.281 182.478 L 169.99 200.296 L 143.19 209.99 L 145.932 190.475 Z  M 169.064 255.362 L 134.486 271.61 L 139.282 237.563 L 169.561 225.202 L 169.064 255.362 Z  M 139.41 236.654 L 143.051 210.935 L 169.974 201.198 L 169.622 224.342 L 139.41 236.654 Z  M 169.84 254.995 L 170.337 224.908 L 197.695 213.745 L 200.889 240.421 L 169.84 254.995 Z  M 201.598 240.054 L 198.432 213.45 L 223.518 203.22 L 229.716 226.827 L 201.598 240.054 Z  M 230.43 226.478 L 224.238 202.913 L 245.729 194.146 L 254.048 215.364 L 230.43 226.478 Z  M 254.757 215.045 L 246.449 193.863 L 266.929 185.498 L 276.979 204.598 L 254.757 215.045 Z  M 277.649 204.261 L 267.643 185.204 L 286.348 177.567 L 297.805 194.778 L 277.649 204.261 Z  M 298.525 194.435 L 287.124 177.236 L 304.533 170.136 L 316.866 185.781 L 298.525 194.435 Z  M 317.581 185.462 L 305.298 169.817 L 336.497 157.083 L 350.618 169.907 L 317.581 185.462 Z  M 351.383 169.552 L 337.312 156.777 L 349.038 151.963 L 363.364 163.925 L 351.383 169.552 Z  M 364.152 163.534 L 349.881 151.613 L 361.047 147.058 L 375.787 158.058 L 364.152 163.534 Z  M 376.614 157.667 L 361.924 146.697 L 374.341 141.63 L 389.416 151.638 L 376.614 157.667 Z  M 390.293 151.228 L 375.218 141.263 L 385.357 137.123 L 400.477 146.42 L 390.293 151.228 Z  M 401.387 146.005 L 386.312 136.744 L 395.921 132.821 L 411.085 141.438 L 401.387 146.005 Z  M 411.995 141.017 L 396.887 132.429 L 405.742 128.819 L 420.973 136.792 L 411.995 141.017 Z  M 421.906 136.353 L 406.736 128.41 L 415.976 124.637 L 431.113 132.02 L 421.906 136.353 Z " fill="rgb(237,237,244)"/></g><g opacity="0.8"><path d=" M 273.337 78.42 L 273.337 109.789 L 239.805 117.361 L 227.909 102.218 L 226.859 71.923 L 226.83 70.854 L 257.111 65.445 L 273.337 78.42 L 273.337 78.42 Z " fill="rgb(237,237,244)"/></g><g opacity="0.1"><path d=" M 273.337 78.64 L 273.337 109.789 L 240.161 117.283 L 239.805 117.361 L 227.909 102.218 L 226.859 71.923 L 239.263 83.287 L 273.337 78.64 L 273.337 78.64 Z " fill="rgb(0,0,0)"/></g><g opacity="0.1"><path d=" M 273.337 78.737 L 273.337 109.789 L 240.161 117.283 L 239.263 83.287 L 272.795 78.962 L 273.337 78.737 L 273.337 78.737 Z " fill="rgb(0,0,0)"/></g><path d=" M 254.914 75.652 L 253.264 72.787 L 251.614 69.926 L 249.959 72.787 L 248.309 75.652 L 251.126 75.652 L 251.126 88.877 L 252.102 88.877 L 252.102 75.652 L 254.914 75.652 L 254.914 75.652 Z " fill="rgb(240,239,255)"/><path d=" M 264.98 103.102 L 263.33 100.236 L 262.187 102.218 L 253.654 94.134 L 252.986 94.842 L 261.685 103.087 L 261.675 103.102 L 260.025 105.962 L 263.33 105.962 L 266.63 105.962 L 264.98 103.102 L 264.98 103.102 Z " fill="rgb(240,239,255)"/><path d=" M 268.905 87.734 L 265.8 86.597 L 266.317 89.579 L 255.187 91.566 L 255.358 92.528 L 266.483 90.541 L 266.932 93.109 L 269.466 90.99 L 272.004 88.872 L 268.905 87.734 L 268.905 87.734 Z " fill="rgb(237,237,244)"/></g></g></svg>